PathFileType	4	(X/Y/Z)	 control3min.trc
DataRate	CameraRate	NumFrames	NumMarkers	Units	OrigDataRate	OrigDataStartFrame	OrigNumFrames
200	200	9	35	m	200	376	1000
Frame#	Time	C7			LSH			RSH			MAN			RASI			LASI			HIPR			HIPL			RPSI			LPSI			COX			RTHI1			RTHI2			RTHI3			RTHI4			RSHA1			RSHA2			RSHA3			RSHA4			RHEEL			RMET5			RMET1			RTOE			LTHI1			LTHI2			LTHI3			LTHI4			LSHA1			LSHA2			LSHA3			LSHA4			LHEEL			LMET5			LMET1			LTOE			
		X1	Y1	Z1	X2	Y2	Z2	X3	Y3	Z3	X4	Y4	Z4	X5	Y5	Z5	X6	Y6	Z6	X7	Y7	Z7	X8	Y8	Z8	X9	Y9	Z9	X10	Y10	Z10	X11	Y11	Z11	X12	Y12	Z12	X13	Y13	Z13	X14	Y14	Z14	X15	Y15	Z15	X16	Y16	Z16	X17	Y17	Z17	X18	Y18	Z18	X19	Y19	Z19	X20	Y20	Z20	X21	Y21	Z21	X22	Y22	Z22	X23	Y23	Z23	X24	Y24	Z24	X25	Y25	Z25	X26	Y26	Z26	X27	Y27	Z27	X28	Y28	Z28	X29	Y29	Z29	X30	Y30	Z30	X31	Y31	Z31	X32	Y32	Z32	X33	Y33	Z33	X34	Y34	Z34	X35	Y35	Z35	
376	1.8800	-0.225861	1.448845	-0.556434	-0.146292	1.443007	-0.724790	-0.183380	1.420967	-0.383976	-0.103256	1.402339	-0.550122	-0.101945	1.002567	-0.436327	-0.085066	1.000436	-0.665171	-0.153775	1.054025	-0.415701	-0.135597	1.049072	-0.693671	-0.253327	1.038865	-0.504066	-0.244239	1.038860	-0.617637	-0.257056	1.041867	-0.559500	-0.203423	0.793572	-0.389480	-0.178541	0.739402	-0.383503	-0.119733	0.763080	-0.371071	-0.136997	0.822016	-0.375496	-0.216921	0.379430	-0.377017	-0.229111	0.339023	-0.385642	-0.169189	0.327608	-0.383099	-0.160987	0.366961	-0.379190	-0.298233	0.141577	-0.434976	-0.163212	0.057999	-0.382890	-0.141290	0.053795	-0.443104	-0.116952	0.041835	-0.436271	-0.161246	0.808771	-0.730657	-0.140342	0.750838	-0.729062	-0.078142	0.767602	-0.719201	-0.091546	0.825749	-0.720516	-0.200606	0.383689	-0.726246	-0.217851	0.347232	-0.723936	-0.158440	0.327311	-0.717627	-0.148618	0.370234	-0.721450	-0.308426	0.132784	-0.678171	-0.172370	0.057970	-0.720703	-0.141481	0.057541	-0.657759	-0.119813	0.048136	-0.663314	
377	1.8850	-0.225417	1.445585	-0.556155	-0.145966	1.439501	-0.724795	-0.183197	1.417447	-0.383756	-0.103044	1.398909	-0.549958	-0.102323	0.999477	-0.436241	-0.085388	0.997369	-0.665112	-0.154314	1.050817	-0.415725	-0.135991	1.045844	-0.693607	-0.253847	1.035318	-0.504077	-0.244731	1.035332	-0.617644	-0.257570	1.038311	-0.559482	-0.202551	0.790231	-0.388968	-0.177395	0.736171	-0.383185	-0.118571	0.760070	-0.371381	-0.136075	0.818947	-0.375579	-0.216257	0.376747	-0.376983	-0.228797	0.336464	-0.385735	-0.168950	0.324632	-0.383624	-0.160429	0.363895	-0.379607	-0.299536	0.139509	-0.435335	-0.164556	0.055241	-0.384621	-0.143109	0.051184	-0.445070	-0.118722	0.039225	-0.438588	-0.160267	0.805739	-0.730796	-0.139155	0.747874	-0.728887	-0.077134	0.764880	-0.718399	-0.090744	0.822988	-0.719856	-0.199605	0.380854	-0.726542	-0.217109	0.344529	-0.724256	-0.157903	0.324252	-0.717282	-0.147762	0.367105	-0.721189	-0.309496	0.130816	-0.678365	-0.173643	0.054945	-0.719558	-0.143087	0.054859	-0.656464	-0.121428	0.045330	-0.661811	
378	1.8900	-0.225955	1.442156	-0.556964	-0.145615	1.435756	-0.724783	-0.183002	1.413704	-0.383558	-0.102835	1.395230	-0.549797	-0.102703	0.996138	-0.436152	-0.085714	0.994055	-0.665050	-0.154855	1.047367	-0.415741	-0.136390	1.042369	-0.693547	-0.254346	1.031540	-0.504079	-0.245203	1.031585	-0.617614	-0.258062	1.034538	-0.559453	-0.201660	0.786634	-0.388501	-0.176232	0.732699	-0.382907	-0.117403	0.756818	-0.371700	-0.135163	0.815643	-0.375603	-0.215564	0.373828	-0.376898	-0.228485	0.333651	-0.385852	-0.168714	0.321392	-0.384177	-0.159864	0.360581	-0.380016	-0.300914	0.137272	-0.435752	-0.166064	0.052216	-0.386332	-0.144996	0.048452	-0.447102	-0.120550	0.036613	-0.440944	-0.159279	0.802467	-0.730907	-0.137968	0.744671	-0.728689	-0.076131	0.761913	-0.717582	-0.089939	0.819978	-0.719200	-0.198582	0.377787	-0.726833	-0.216352	0.341595	-0.724572	-0.157354	0.320959	-0.716935	-0.146889	0.363729	-0.720926	-0.310591	0.128666	-0.678581	-0.174984	0.051680	-0.718422	-0.144753	0.051950	-0.655145	-0.123114	0.042324	-0.660281	
379	1.8950	-0.225818	1.438506	-0.557055	-0.145236	1.431778	-0.724756	-0.182792	1.409732	-0.383387	-0.102634	1.391302	-0.549638	-0.103083	0.992553	-0.436060	-0.086039	0.990486	-0.664987	-0.155396	1.043663	-0.415740	-0.136793	1.038647	-0.693495	-0.254822	1.027542	-0.504067	-0.245650	1.027615	-0.617547	-0.258530	1.030548	-0.559413	-0.200773	0.782777	-0.388083	-0.175070	0.728994	-0.382661	-0.116253	0.753323	-0.372031	-0.134287	0.812098	-0.375566	-0.214872	0.370664	-0.376780	-0.228175	0.330593	-0.385989	-0.168491	0.317894	-0.384746	-0.159302	0.357010	-0.380412	-0.302409	0.134842	-0.436268	-0.167743	0.049007	-0.387838	-0.146804	0.045769	-0.449080	-0.122278	0.034176	-0.443235	-0.158304	0.798940	-0.730993	-0.136799	0.741212	-0.728468	-0.075147	0.758683	-0.716752	-0.089149	0.816704	-0.718551	-0.197554	0.374493	-0.727103	-0.215596	0.338440	-0.724863	-0.156817	0.317440	-0.716605	-0.146019	0.360119	-0.720669	-0.311728	0.126306	-0.678812	-0.176391	0.048237	-0.717373	-0.146431	0.048944	-0.653758	-0.124783	0.039290	-0.658643	
380	1.9000	-0.225554	1.434629	-0.556904	-0.144831	1.427569	-0.724714	-0.182579	1.405537	-0.383241	-0.102439	1.387126	-0.549485	-0.103450	0.988716	-0.435956	-0.086363	0.986664	-0.664920	-0.155937	1.039711	-0.415717	-0.137200	1.034677	-0.693450	-0.255274	1.023319	-0.504042	-0.246081	1.023428	-0.617467	-0.258974	1.026343	-0.559362	-0.199908	0.778663	-0.387725	-0.173937	0.725009	-0.382510	-0.115134	0.749581	-0.372370	-0.133453	0.808294	-0.375592	-0.214199	0.367239	-0.376677	-0.227889	0.327287	-0.386147	-0.168298	0.314150	-0.385317	-0.158769	0.353190	-0.380809	-0.304057	0.132178	-0.436918	-0.169540	0.045774	-0.388929	-0.148386	0.043331	-0.450796	-0.123756	0.032118	-0.445290	-0.157350	0.795146	-0.731053	-0.135664	0.737483	-0.728231	-0.074197	0.755169	-0.715907	-0.088387	0.813157	-0.717912	-0.196551	0.370967	-0.727341	-0.214863	0.335070	-0.725128	-0.156301	0.313700	-0.716308	-0.145175	0.356279	-0.720430	-0.312939	0.123681	-0.679033	-0.177826	0.044783	-0.716557	-0.148002	0.045990	-0.652359	-0.126310	0.036399	-0.656916	
381	1.9050	-0.225367	1.430441	-0.556791	-0.144406	1.423134	-0.724661	-0.182366	1.401123	-0.383121	-0.102252	1.382703	-0.549340	-0.103800	0.984628	-0.435839	-0.086683	0.982589	-0.664852	-0.156464	1.035512	-0.415668	-0.137609	1.030459	-0.693412	-0.255704	1.018879	-0.504007	-0.246495	1.019028	-0.617378	-0.259393	1.021928	-0.559300	-0.199091	0.774288	-0.387416	-0.172841	0.720762	-0.382395	-0.114072	0.745594	-0.372712	-0.132689	0.804229	-0.375674	-0.213573	0.363560	-0.376620	-0.227648	0.323754	-0.386293	-0.168160	0.310167	-0.385873	-0.158293	0.349109	-0.381199	-0.305895	0.129244	-0.437718	-0.171356	0.042689	-0.389425	-0.149645	0.041330	-0.452065	-0.124844	0.030628	-0.446954	-0.156434	0.791073	-0.731095	-0.134578	0.733481	-0.727988	-0.073302	0.751372	-0.715049	-0.087666	0.809325	-0.717281	-0.195587	0.367248	-0.727546	-0.214175	0.331498	-0.725364	-0.155830	0.309738	-0.716052	-0.144375	0.352226	-0.720219	-0.314289	0.120761	-0.679245	-0.179188	0.041518	-0.716082	-0.149361	0.043281	-0.651086	-0.127584	0.033824	-0.655228	
382	1.9100	-0.225209	1.425915	-0.556817	-0.143962	1.418478	-0.724594	-0.182157	1.396492	-0.383024	-0.102070	1.378037	-0.549206	-0.104142	0.980286	-0.435717	-0.086996	0.978267	-0.664780	-0.156961	1.031058	-0.415591	-0.138012	1.025994	-0.693382	-0.256112	1.014225	-0.503956	-0.246894	1.014415	-0.617281	-0.259691	1.017271	-0.559272	-0.198341	0.769638	-0.387144	-0.171811	0.716237	-0.382336	-0.113087	0.741350	-0.373051	-0.132008	0.799898	-0.375807	-0.213026	0.359653	-0.376629	-0.227480	0.319991	-0.386459	-0.168122	0.305959	-0.386413	-0.157904	0.344788	-0.381598	-0.307942	0.126034	-0.438663	-0.173102	0.039928	-0.389211	-0.150545	0.039898	-0.452736	-0.125445	0.029611	-0.448101	-0.155575	0.786709	-0.731121	-0.133554	0.729189	-0.727749	-0.072474	0.747280	-0.714192	-0.087002	0.805205	-0.716659	-0.194695	0.363336	-0.727721	-0.213563	0.327742	-0.725582	-0.155435	0.305566	-0.715849	-0.143653	0.347967	-0.720041	-0.315833	0.117538	-0.679417	-0.180410	0.038620	-0.716020	-0.150438	0.041018	-0.650022	-0.128514	0.031768	-0.653632	
383	1.9150	-0.225031	1.421235	-0.556744	-0.143503	1.413607	-0.724515	-0.181942	1.391638	-0.382948	-0.101896	1.373133	-0.549084	-0.104467	0.975698	-0.435582	-0.087301	0.973707	-0.664702	-0.157428	1.026346	-0.415475	-0.138410	1.021286	-0.693364	-0.256506	1.009366	-0.503885	-0.247282	1.009593	-0.617182	-0.259879	1.012364	-0.559278	-0.197681	0.764722	-0.386907	-0.170868	0.711448	-0.382296	-0.112199	0.736848	-0.373379	-0.131433	0.795292	-0.375991	-0.212581	0.355533	-0.376729	-0.227407	0.316032	-0.386662	-0.168206	0.301553	-0.386938	-0.157620	0.340246	-0.381999	-0.310180	0.122566	-0.439646	-0.174713	0.037635	-0.388327	-0.151090	0.039018	-0.452739	-0.125627	0.028998	-0.448673	-0.154788	0.782056	-0.731145	-0.132610	0.724605	-0.727529	-0.071730	0.742887	-0.713361	-0.086412	0.800791	-0.716049	-0.193900	0.359260	-0.727869	-0.213064	0.323820	-0.725783	-0.155166	0.301193	-0.715700	-0.143043	0.343509	-0.719892	-0.317637	0.114042	-0.679549	-0.181480	0.036275	-0.716437	-0.151214	0.039379	-0.649268	-0.129059	0.030362	-0.652229	
384	1.9200	-0.225018	1.416380	-0.556765	-0.143032	1.408530	-0.724423	-0.181737	1.386569	-0.382873	-0.101744	1.367959	-0.548983	-0.104768	0.970866	-0.435433	-0.087598	0.968923	-0.664624	-0.157863	1.021389	-0.415316	-0.138796	1.016336	-0.693362	-0.256893	1.004303	-0.503795	-0.247669	1.004568	-0.617086	-0.259963	1.007217	-0.559321	-0.197123	0.759540	-0.386712	-0.170031	0.706372	-0.382276	-0.111428	0.732098	-0.373670	-0.130973	0.790416	-0.376217	-0.212237	0.351261	-0.376884	-0.227437	0.311924	-0.386921	-0.168420	0.296994	-0.387448	-0.157454	0.335526	-0.382391	-0.312548	0.118930	-0.440592	-0.176106	0.035831	-0.387054	-0.151455	0.038571	-0.452214	-0.125575	0.028677	-0.448752	-0.154087	0.777117	-0.731161	-0.131751	0.719727	-0.727345	-0.071074	0.738198	-0.712597	-0.085908	0.796086	-0.715462	-0.193233	0.355035	-0.727977	-0.212713	0.319766	-0.725960	-0.155055	0.296645	-0.715593	-0.142564	0.338868	-0.719765	-0.319711	0.110355	-0.679680	-0.182396	0.034558	-0.717250	-0.151728	0.038323	-0.648995	-0.129306	0.029460	-0.651254	
